# 3ds Max Wavefront OBJ Exporter v0.97b - (c)2007 guruware
# File Created: 28.02.2016 16:26:23

#
# object clock
#

v  -0.9226 0.1231 0.4644
v  -0.9145 0.1231 0.4588
v  -0.9145 0.0000 0.4588
v  -0.9226 0.0000 0.4644
v  -0.9306 0.1231 0.4698
v  -0.9306 0.0000 0.4698
v  -0.9386 0.1231 0.4752
v  -0.9386 0.0000 0.4752
v  -0.9465 0.1231 0.4807
v  -0.9465 0.0000 0.4807
v  -0.9545 0.1231 0.4865
v  -0.9545 0.0000 0.4865
v  -0.9625 0.1231 0.4929
v  -0.9625 0.0000 0.4929
v  -1.0178 0.1231 0.5408
v  -1.0178 0.0000 0.5408
v  -1.0707 0.1231 0.5913
v  -1.0707 0.0000 0.5913
v  -1.1823 0.1231 0.7158
v  -1.1823 0.0000 0.7158
v  -1.2799 0.1231 0.8519
v  -1.2799 0.0000 0.8519
v  -1.3623 0.1231 0.9987
v  -1.3623 0.0000 0.9987
v  -1.4284 0.1231 1.1549
v  -1.4284 0.0000 1.1549
v  -1.4771 0.1231 1.3194
v  -1.4771 0.0000 1.3194
v  -1.5071 0.1231 1.4910
v  -1.5071 0.0000 1.4910
v  -1.5173 0.1231 1.6685
v  -1.5173 0.0000 1.6685
v  -1.4771 0.1231 2.0177
v  -1.4771 0.0000 2.0177
v  -1.3623 0.1231 2.3383
v  -1.3623 0.0000 2.3383
v  -1.1823 0.1231 2.6213
v  -1.1823 0.0000 2.6213
v  -0.9463 0.1231 2.8574
v  -0.9463 0.0000 2.8574
v  -0.6633 0.1231 3.0374
v  -0.6633 0.0000 3.0374
v  -0.3427 0.1231 3.1521
v  -0.3427 0.0000 3.1521
v  0.0065 0.1231 3.1924
v  0.0065 0.0000 3.1924
v  0.3557 0.1231 3.1521
v  0.3557 0.0000 3.1521
v  0.6763 0.1231 3.0373
v  0.6763 0.0000 3.0373
v  0.9593 0.1231 2.8574
v  0.9593 0.0000 2.8574
v  1.1953 0.1231 2.6213
v  1.1953 0.0000 2.6213
v  1.3753 0.1231 2.3383
v  1.3753 0.0000 2.3383
v  1.4901 0.1231 2.0177
v  1.4901 0.0000 2.0177
v  1.5303 0.1231 1.6685
v  1.5303 0.0000 1.6685
v  1.5284 0.1231 1.5902
v  1.5284 0.0000 1.5902
v  1.5225 0.1231 1.5128
v  1.5225 0.0000 1.5128
v  1.5128 0.1231 1.4366
v  1.5128 0.0000 1.4366
v  1.4994 0.1231 1.3616
v  1.4994 0.0000 1.3616
v  1.4823 0.1231 1.2879
v  1.4823 0.0000 1.2879
v  1.4618 0.1231 1.2157
v  1.4618 0.0000 1.2157
v  1.4378 0.1231 1.1449
v  1.4378 0.0000 1.1449
v  1.4105 0.1231 1.0757
v  1.4105 0.0000 1.0757
v  1.3800 0.1231 1.0082
v  1.3800 0.0000 1.0082
v  1.3463 0.1231 0.9425
v  1.3463 0.0000 0.9425
v  1.3096 0.1231 0.8787
v  1.3096 0.0000 0.8787
v  1.2699 0.1231 0.8169
v  1.2699 0.0000 0.8169
v  1.2274 0.1231 0.7571
v  1.2274 0.0000 0.7571
v  1.1821 0.1231 0.6995
v  1.1821 0.0000 0.6995
v  1.1342 0.1231 0.6442
v  1.1342 0.0000 0.6442
v  1.0837 0.1231 0.5913
v  1.0837 0.0000 0.5913
v  1.0308 0.1231 0.5408
v  1.0308 0.0000 0.5408
v  0.9755 0.1231 0.4929
v  0.9755 0.0000 0.4929
v  0.9111 0.1231 0.4443
v  0.9111 0.0000 0.4443
v  0.9042 0.1231 -0.3426
v  0.9042 0.0000 -0.3426
v  0.8977 0.1231 -0.3990
v  0.8977 0.0000 -0.3990
v  0.8792 0.1231 -0.4508
v  0.8792 0.0000 -0.4508
v  0.8501 0.1231 -0.4965
v  0.8501 0.0000 -0.4965
v  0.8120 0.1231 -0.5346
v  0.8120 0.0000 -0.5346
v  0.7663 0.1231 -0.5637
v  0.7663 0.0000 -0.5637
v  0.7145 0.1231 -0.5822
v  0.7145 0.0000 -0.5822
v  0.6581 0.1231 -0.5887
v  0.6581 0.0000 -0.5887
v  -0.6581 0.1231 -0.5887
v  -0.6581 0.0000 -0.5887
v  -0.7145 0.1231 -0.5822
v  -0.7145 0.0000 -0.5822
v  -0.7663 0.1231 -0.5637
v  -0.7663 0.0000 -0.5637
v  -0.8120 0.1231 -0.5346
v  -0.8120 0.0000 -0.5346
v  -0.8501 0.1231 -0.4965
v  -0.8501 0.0000 -0.4965
v  -0.8792 0.1231 -0.4508
v  -0.8792 0.0000 -0.4508
v  -0.8977 0.1231 -0.3990
v  -0.8977 0.0000 -0.3990
v  -0.9042 0.1231 -0.3426
v  -0.9042 0.0000 -0.3426
v  -0.9062 0.1231 0.4527
v  -0.9062 0.0000 0.4527
# 132 vertices

vn -0.5645 0.0000 -0.8255
vn -0.5784 0.0000 -0.8158
vn -0.5602 0.0000 -0.8283
vn -0.5662 0.0000 -0.8243
vn -0.5822 0.0000 -0.8131
vn -0.6068 0.0000 -0.7949
vn -0.6380 0.0000 -0.7700
vn -0.6726 0.0000 -0.7400
vn -0.7179 0.0000 -0.6962
vn -0.7799 0.0000 -0.6259
vn -0.8437 0.0000 -0.5368
vn -0.8978 0.0000 -0.4404
vn -0.9414 0.0000 -0.3372
vn -0.9736 0.0000 -0.2283
vn -0.9933 0.0000 -0.1152
vn -0.9996 0.0000 0.0286
vn -0.9738 0.0000 0.2272
vn -0.8982 0.0000 0.4395
vn -0.7801 0.0000 0.6257
vn -0.6257 0.0000 0.7801
vn -0.4395 0.0000 0.8982
vn -0.2272 0.0000 0.9738
vn 0.0000 0.0000 1.0000
vn 0.2272 0.0000 0.9738
vn 0.4395 0.0000 0.8982
vn 0.6257 0.0000 0.7801
vn 0.7801 0.0000 0.6257
vn 0.8982 0.0000 0.4395
vn 0.9738 0.0000 0.2272
vn 0.9990 0.0000 0.0447
vn 0.9987 0.0000 -0.0507
vn 0.9949 0.0000 -0.1011
vn 0.9885 0.0000 -0.1512
vn 0.9797 0.0000 -0.2007
vn 0.9684 0.0000 -0.2494
vn 0.9548 0.0000 -0.2973
vn 0.9389 0.0000 -0.3441
vn 0.9209 0.0000 -0.3898
vn 0.9007 0.0000 -0.4343
vn 0.8786 0.0000 -0.4776
vn 0.8545 0.0000 -0.5195
vn 0.8285 0.0000 -0.5600
vn 0.8007 0.0000 -0.5990
vn 0.7712 0.0000 -0.6366
vn 0.7400 0.0000 -0.6726
vn 0.7071 0.0000 -0.7071
vn 0.6726 0.0000 -0.7400
vn 0.6290 0.0000 -0.7774
vn 0.6024 0.0000 -0.7982
vn 1.0000 0.0000 -0.0087
vn 0.9738 0.0000 -0.2272
vn 0.9934 0.0000 -0.1146
vn 0.8982 0.0000 -0.4395
vn 0.7801 0.0000 -0.6257
vn 0.6257 0.0000 -0.7801
vn 0.4395 0.0000 -0.8982
vn 0.2272 0.0000 -0.9738
vn 0.1146 0.0000 -0.9934
vn 0.0000 0.0000 -1.0000
vn -0.2272 0.0000 -0.9738
vn -0.1146 0.0000 -0.9934
vn -0.4395 0.0000 -0.8982
vn -0.6257 0.0000 -0.7801
vn -0.7801 0.0000 -0.6257
vn -0.8982 0.0000 -0.4395
vn -0.9738 0.0000 -0.2272
vn -0.9934 0.0000 -0.1146
vn -1.0000 0.0000 -0.0025
vn -0.5876 0.0000 -0.8092
vn 0.0000 -1.0000 -0.0000
vn 0.0000 1.0000 -0.0000
# 71 vertex normals

g clock
s 1
f 1//1 2//2 3//2 4//1 
s 3
f 5//3 1//1 4//1 6//3 
s 2
f 7//4 5//3 6//3 8//4 
f 9//5 7//4 8//4 10//5 
f 11//6 9//5 10//5 12//6 
f 13//7 11//6 12//6 14//7 
f 15//8 13//7 14//7 16//8 
f 17//9 15//8 16//8 18//9 
f 19//10 17//9 18//9 20//10 
f 21//11 19//10 20//10 22//11 
f 23//12 21//11 22//11 24//12 
f 25//13 23//12 24//12 26//13 
f 27//14 25//13 26//13 28//14 
f 29//15 27//14 28//14 30//15 
f 31//16 29//15 30//15 32//16 
f 33//17 31//16 32//16 34//17 
f 35//18 33//17 34//17 36//18 
f 37//19 35//18 36//18 38//19 
f 39//20 37//19 38//19 40//20 
f 41//21 39//20 40//20 42//21 
f 43//22 41//21 42//21 44//22 
f 45//23 43//22 44//22 46//23 
f 47//24 45//23 46//23 48//24 
f 49//25 47//24 48//24 50//25 
f 51//26 49//25 50//25 52//26 
f 53//27 51//26 52//26 54//27 
f 55//28 53//27 54//27 56//28 
f 57//29 55//28 56//28 58//29 
f 59//30 57//29 58//29 60//30 
f 61//31 59//30 60//30 62//31 
f 63//32 61//31 62//31 64//32 
f 65//33 63//32 64//32 66//33 
f 67//34 65//33 66//33 68//34 
f 69//35 67//34 68//34 70//35 
f 71//36 69//35 70//35 72//36 
f 73//37 71//36 72//36 74//37 
f 75//38 73//37 74//37 76//38 
f 77//39 75//38 76//38 78//39 
f 79//40 77//39 78//39 80//40 
f 81//41 79//40 80//40 82//41 
f 83//42 81//41 82//41 84//42 
f 85//43 83//42 84//42 86//43 
f 87//44 85//43 86//43 88//44 
f 89//45 87//44 88//44 90//45 
f 91//46 89//45 90//45 92//46 
f 93//47 91//46 92//46 94//47 
f 95//48 93//47 94//47 96//48 
f 97//49 95//48 96//48 98//49 
s 4
f 99//50 97//50 98//50 100//50 
s 2
f 101//51 99//52 100//52 102//51 
f 103//53 101//51 102//51 104//53 
f 105//54 103//53 104//53 106//54 
f 107//55 105//54 106//54 108//55 
f 109//56 107//55 108//55 110//56 
f 111//57 109//56 110//56 112//57 
f 113//58 111//57 112//57 114//58 
s 4
f 115//59 113//59 114//59 116//59 
s 2
f 117//60 115//61 116//61 118//60 
f 119//62 117//60 118//60 120//62 
f 121//63 119//62 120//62 122//63 
f 123//64 121//63 122//63 124//64 
f 125//65 123//64 124//64 126//65 
f 127//66 125//65 126//65 128//66 
f 129//67 127//66 128//66 130//67 
s 4
f 131//68 129//68 130//68 132//68 
s 3
f 2//2 131//69 132//69 3//2 
s 16
f 110//70 108//70 106//70 104//70 
f 112//70 110//70 104//70 102//70 
f 112//70 102//70 100//70 114//70 
f 116//70 114//70 100//70 118//70 
f 120//70 118//70 100//70 122//70 
f 124//70 122//70 100//70 126//70 
f 128//70 126//70 100//70 130//70 
f 130//70 100//70 98//70 132//70 
f 3//70 132//70 98//70 4//70 
f 6//70 4//70 98//70 8//70 
f 10//70 8//70 98//70 12//70 
f 14//70 12//70 98//70 96//70 
f 14//70 96//70 94//70 16//70 
f 18//70 16//70 94//70 92//70 
f 18//70 92//70 90//70 88//70 
f 18//70 88//70 86//70 84//70 
f 18//70 84//70 82//70 80//70 
f 18//70 80//70 78//70 76//70 
f 18//70 76//70 74//70 72//70 
f 18//70 72//70 70//70 68//70 
f 18//70 68//70 66//70 64//70 
f 18//70 64//70 62//70 60//70 
f 20//70 18//70 60//70 22//70 
f 24//70 22//70 60//70 26//70 
f 28//70 26//70 60//70 30//70 
f 32//70 30//70 60//70 58//70 
f 32//70 58//70 56//70 54//70 
f 34//70 32//70 54//70 36//70 
f 38//70 36//70 54//70 52//70 
f 40//70 38//70 52//70 50//70 
f 42//70 40//70 50//70 44//70 
f 44//70 50//70 48//70 46//70 
f 43//71 45//71 47//71 49//71 
f 105//71 107//71 109//71 103//71 
f 103//71 109//71 111//71 101//71 
f 99//71 101//71 111//71 113//71 
f 99//71 113//71 115//71 117//71 
f 99//71 117//71 119//71 121//71 
f 99//71 121//71 123//71 125//71 
f 99//71 125//71 127//71 129//71 
f 97//71 99//71 129//71 131//71 
f 97//71 131//71 2//71 1//71 
f 97//71 1//71 5//71 7//71 
f 97//71 7//71 9//71 11//71 
f 97//71 11//71 13//71 95//71 
f 93//71 95//71 13//71 15//71 
f 93//71 15//71 17//71 91//71 
f 89//71 91//71 17//71 87//71 
f 85//71 87//71 17//71 83//71 
f 81//71 83//71 17//71 79//71 
f 77//71 79//71 17//71 75//71 
f 73//71 75//71 17//71 71//71 
f 69//71 71//71 17//71 67//71 
f 65//71 67//71 17//71 63//71 
f 61//71 63//71 17//71 59//71 
f 59//71 17//71 19//71 21//71 
f 59//71 21//71 23//71 25//71 
f 59//71 25//71 27//71 29//71 
f 59//71 29//71 31//71 57//71 
f 55//71 57//71 31//71 53//71 
f 53//71 31//71 33//71 35//71 
f 53//71 35//71 37//71 51//71 
f 51//71 37//71 39//71 49//71 
f 49//71 39//71 41//71 43//71 
# 130 polygons

