# 3ds Max Wavefront OBJ Exporter v0.97b - (c)2007 guruware
# File Created: 28.02.2016 16:19:10

#
# object coins
#

v  8.7426 0.7500 -0.4646
v  8.7547 0.7500 -0.0000
v  8.7547 0.0000 -0.0000
v  8.7426 0.0000 -0.4646
v  8.7066 0.7500 -0.9229
v  8.7066 0.0000 -0.9229
v  8.6472 0.7500 -1.3743
v  8.6472 0.0000 -1.3743
v  8.5652 0.7500 -1.8182
v  8.5652 0.0000 -1.8182
v  8.4612 0.7500 -2.2540
v  8.4612 0.0000 -2.2540
v  8.3356 0.7500 -2.6812
v  8.3356 0.0000 -2.6812
v  8.1892 0.7500 -3.0990
v  8.1892 0.0000 -3.0990
v  8.0226 0.7500 -3.5069
v  8.0226 0.0000 -3.5069
v  7.8364 0.7500 -3.9043
v  7.8364 0.0000 -3.9043
v  7.6311 0.7500 -4.2906
v  7.6311 0.0000 -4.2906
v  7.4073 0.7500 -4.6651
v  7.4073 0.0000 -4.6651
v  7.1658 0.7500 -5.0273
v  7.1658 0.0000 -5.0273
v  6.9071 0.7500 -5.3765
v  6.9071 0.0000 -5.3765
v  6.6317 0.7500 -5.7122
v  6.6317 0.0000 -5.7122
v  6.3404 0.7500 -6.0337
v  6.3404 0.0000 -6.0337
v  6.0337 0.7500 -6.3404
v  6.0337 0.0000 -6.3404
v  5.7122 0.7500 -6.6317
v  5.7122 0.0000 -6.6317
v  5.3765 0.7500 -6.9071
v  5.3765 0.0000 -6.9071
v  5.0273 0.7500 -7.1658
v  5.0273 0.0000 -7.1658
v  4.6651 0.7500 -7.4073
v  4.6651 0.0000 -7.4073
v  4.2906 0.7500 -7.6311
v  4.2906 0.0000 -7.6311
v  3.9043 0.7500 -7.8364
v  3.9043 0.0000 -7.8364
v  3.5069 0.7500 -8.0226
v  3.5069 0.0000 -8.0226
v  3.0990 0.7500 -8.1892
v  3.0990 0.0000 -8.1892
v  2.6812 0.7500 -8.3356
v  2.6812 0.0000 -8.3356
v  2.2540 0.7500 -8.4612
v  2.2540 0.0000 -8.4612
v  1.8182 0.7500 -8.5652
v  1.8182 0.0000 -8.5652
v  1.3743 0.7500 -8.6472
v  1.3743 0.0000 -8.6472
v  0.9229 0.7500 -8.7066
v  0.9229 0.0000 -8.7066
v  0.4646 0.7500 -8.7426
v  0.4646 0.0000 -8.7426
v  0.0000 0.7500 -8.7547
v  0.0000 0.0000 -8.7547
v  -0.4646 0.7500 -8.7426
v  -0.4646 0.0000 -8.7426
v  -0.9229 0.7500 -8.7066
v  -0.9229 0.0000 -8.7066
v  -1.3743 0.7500 -8.6472
v  -1.3743 0.0000 -8.6472
v  -1.8182 0.7500 -8.5652
v  -1.8182 0.0000 -8.5652
v  -2.2540 0.7500 -8.4612
v  -2.2540 0.0000 -8.4612
v  -2.6812 0.7500 -8.3356
v  -2.6812 0.0000 -8.3356
v  -3.0990 0.7500 -8.1892
v  -3.0990 0.0000 -8.1892
v  -3.5069 0.7500 -8.0226
v  -3.5069 0.0000 -8.0226
v  -3.9043 0.7500 -7.8364
v  -3.9043 0.0000 -7.8364
v  -4.2906 0.7500 -7.6311
v  -4.2906 0.0000 -7.6311
v  -4.6651 0.7500 -7.4073
v  -4.6651 0.0000 -7.4073
v  -5.0273 0.7500 -7.1658
v  -5.0273 0.0000 -7.1658
v  -5.3765 0.7500 -6.9071
v  -5.3765 0.0000 -6.9071
v  -5.7122 0.7500 -6.6317
v  -5.7122 0.0000 -6.6317
v  -6.0337 0.7500 -6.3404
v  -6.0337 0.0000 -6.3404
v  -6.3404 0.7500 -6.0337
v  -6.3404 0.0000 -6.0337
v  -6.6317 0.7500 -5.7122
v  -6.6317 0.0000 -5.7122
v  -6.9071 0.7500 -5.3765
v  -6.9071 0.0000 -5.3765
v  -7.1658 0.7500 -5.0273
v  -7.1658 0.0000 -5.0273
v  -7.4073 0.7500 -4.6651
v  -7.4073 0.0000 -4.6651
v  -7.6311 0.7500 -4.2906
v  -7.6311 0.0000 -4.2906
v  -7.8364 0.7500 -3.9043
v  -7.8364 0.0000 -3.9043
v  -8.0226 0.7500 -3.5069
v  -8.0226 0.0000 -3.5069
v  -8.1892 0.7500 -3.0990
v  -8.1892 0.0000 -3.0990
v  -8.3356 0.7500 -2.6812
v  -8.3356 0.0000 -2.6812
v  -8.4612 0.7500 -2.2540
v  -8.4612 0.0000 -2.2540
v  -8.5652 0.7500 -1.8182
v  -8.5652 0.0000 -1.8182
v  -8.6472 0.7500 -1.3743
v  -8.6472 0.0000 -1.3743
v  -8.7066 0.7500 -0.9229
v  -8.7066 0.0000 -0.9229
v  -8.7426 0.7500 -0.4646
v  -8.7426 0.0000 -0.4646
v  -8.7547 0.7500 -0.0000
v  -8.7547 0.0000 -0.0000
v  -8.7426 0.7500 0.4646
v  -8.7426 0.0000 0.4646
v  -8.7066 0.7500 0.9229
v  -8.7066 0.0000 0.9229
v  -8.6472 0.7500 1.3743
v  -8.6472 0.0000 1.3743
v  -8.5652 0.7500 1.8182
v  -8.5652 0.0000 1.8182
v  -8.4612 0.7500 2.2540
v  -8.4612 0.0000 2.2540
v  -8.3356 0.7500 2.6812
v  -8.3356 0.0000 2.6812
v  -8.1892 0.7500 3.0990
v  -8.1892 0.0000 3.0990
v  -8.0226 0.7500 3.5069
v  -8.0226 0.0000 3.5069
v  -7.8364 0.7500 3.9043
v  -7.8364 0.0000 3.9043
v  -7.6311 0.7500 4.2906
v  -7.6311 0.0000 4.2906
v  -7.4073 0.7500 4.6651
v  -7.4073 0.0000 4.6651
v  -7.1658 0.7500 5.0273
v  -7.1658 0.0000 5.0273
v  -6.9071 0.7500 5.3765
v  -6.9071 0.0000 5.3765
v  -6.6317 0.7500 5.7122
v  -6.6317 0.0000 5.7122
v  -6.3404 0.7500 6.0337
v  -6.3404 0.0000 6.0337
v  -6.0337 0.7500 6.3404
v  -6.0337 0.0000 6.3404
v  -5.7122 0.7500 6.6317
v  -5.7122 0.0000 6.6317
v  -5.3765 0.7500 6.9071
v  -5.3765 0.0000 6.9071
v  -5.0273 0.7500 7.1658
v  -5.0273 0.0000 7.1658
v  -4.6651 0.7500 7.4073
v  -4.6651 0.0000 7.4073
v  -4.2906 0.7500 7.6311
v  -4.2906 0.0000 7.6311
v  -3.9043 0.7500 7.8364
v  -3.9043 0.0000 7.8364
v  -3.5069 0.7500 8.0226
v  -3.5069 0.0000 8.0226
v  -3.0990 0.7500 8.1892
v  -3.0990 0.0000 8.1892
v  -2.6812 0.7500 8.3356
v  -2.6812 0.0000 8.3356
v  -2.2540 0.7500 8.4612
v  -2.2540 0.0000 8.4612
v  -1.8182 0.7500 8.5652
v  -1.8182 0.0000 8.5652
v  -1.3743 0.7500 8.6472
v  -1.3743 0.0000 8.6472
v  -0.9229 0.7500 8.7066
v  -0.9229 0.0000 8.7066
v  -0.4646 0.7500 8.7426
v  -0.4646 0.0000 8.7426
v  0.0000 0.7500 8.7547
v  0.0000 0.0000 8.7547
v  0.4646 0.7500 8.7426
v  0.4646 0.0000 8.7426
v  0.9229 0.7500 8.7066
v  0.9229 0.0000 8.7066
v  1.3743 0.7500 8.6472
v  1.3743 0.0000 8.6472
v  1.8182 0.7500 8.5652
v  1.8182 0.0000 8.5652
v  2.2540 0.7500 8.4612
v  2.2540 0.0000 8.4612
v  2.6812 0.7500 8.3356
v  2.6812 0.0000 8.3356
v  3.0990 0.7500 8.1892
v  3.0990 0.0000 8.1892
v  3.5069 0.7500 8.0226
v  3.5069 0.0000 8.0226
v  3.9043 0.7500 7.8364
v  3.9043 0.0000 7.8364
v  4.2906 0.7500 7.6311
v  4.2906 0.0000 7.6311
v  4.6651 0.7500 7.4073
v  4.6651 0.0000 7.4073
v  5.0273 0.7500 7.1658
v  5.0273 0.0000 7.1658
v  5.3765 0.7500 6.9071
v  5.3765 0.0000 6.9071
v  5.7122 0.7500 6.6317
v  5.7122 0.0000 6.6317
v  6.0337 0.7500 6.3404
v  6.0337 0.0000 6.3404
v  6.3404 0.7500 6.0337
v  6.3404 0.0000 6.0337
v  6.6317 0.7500 5.7122
v  6.6317 0.0000 5.7122
v  6.9071 0.7500 5.3765
v  6.9071 0.0000 5.3765
v  7.1658 0.7500 5.0273
v  7.1658 0.0000 5.0273
v  7.4073 0.7500 4.6651
v  7.4073 0.0000 4.6651
v  7.6311 0.7500 4.2906
v  7.6311 0.0000 4.2906
v  7.8364 0.7500 3.9043
v  7.8364 0.0000 3.9043
v  8.0226 0.7500 3.5069
v  8.0226 0.0000 3.5069
v  8.1892 0.7500 3.0990
v  8.1892 0.0000 3.0990
v  8.3356 0.7500 2.6812
v  8.3356 0.0000 2.6812
v  8.4612 0.7500 2.2540
v  8.4612 0.0000 2.2540
v  8.5652 0.7500 1.8182
v  8.5652 0.0000 1.8182
v  8.6472 0.7500 1.3743
v  8.6472 0.0000 1.3743
v  8.7066 0.7500 0.9229
v  8.7066 0.0000 0.9229
v  8.7426 0.7500 0.4646
v  8.7426 0.0000 0.4646
# 248 vertices

vn 0.9986 0.0000 -0.0523
vn 1.0000 0.0000 0.0000
vn 1.0000 0.0000 -0.0000
vn 0.9945 0.0000 -0.1044
vn 0.9878 0.0000 -0.1560
vn 0.9783 0.0000 -0.2070
vn 0.9664 0.0000 -0.2572
vn 0.9519 0.0000 -0.3064
vn 0.9351 0.0000 -0.3545
vn 0.9159 0.0000 -0.4014
vn 0.8945 0.0000 -0.4470
vn 0.8710 0.0000 -0.4912
vn 0.8455 0.0000 -0.5340
vn 0.8180 0.0000 -0.5752
vn 0.7886 0.0000 -0.6149
vn 0.7573 0.0000 -0.6531
vn 0.7243 0.0000 -0.6895
vn 0.6895 0.0000 -0.7243
vn 0.6531 0.0000 -0.7573
vn 0.6150 0.0000 -0.7886
vn 0.5752 0.0000 -0.8180
vn 0.5340 0.0000 -0.8455
vn 0.4912 0.0000 -0.8710
vn 0.4470 0.0000 -0.8945
vn 0.4014 0.0000 -0.9159
vn 0.3545 0.0000 -0.9351
vn 0.3064 0.0000 -0.9519
vn 0.2572 0.0000 -0.9664
vn 0.2070 0.0000 -0.9783
vn 0.1560 0.0000 -0.9878
vn 0.1044 0.0000 -0.9945
vn 0.0523 0.0000 -0.9986
vn 0.0000 0.0000 -1.0000
vn -0.0523 0.0000 -0.9986
vn -0.1044 0.0000 -0.9945
vn -0.1560 0.0000 -0.9878
vn -0.2070 0.0000 -0.9783
vn -0.2572 0.0000 -0.9664
vn -0.3064 0.0000 -0.9519
vn -0.3545 0.0000 -0.9351
vn -0.4014 0.0000 -0.9159
vn -0.4470 0.0000 -0.8945
vn -0.4912 0.0000 -0.8710
vn -0.5340 0.0000 -0.8455
vn -0.5752 0.0000 -0.8180
vn -0.6150 0.0000 -0.7886
vn -0.6531 0.0000 -0.7573
vn -0.6895 0.0000 -0.7243
vn -0.7243 0.0000 -0.6895
vn -0.7573 0.0000 -0.6531
vn -0.7886 0.0000 -0.6149
vn -0.8180 0.0000 -0.5752
vn -0.8455 0.0000 -0.5340
vn -0.8710 0.0000 -0.4912
vn -0.8945 0.0000 -0.4470
vn -0.9159 0.0000 -0.4014
vn -0.9351 0.0000 -0.3545
vn -0.9519 0.0000 -0.3064
vn -0.9664 0.0000 -0.2572
vn -0.9783 0.0000 -0.2070
vn -0.9878 0.0000 -0.1560
vn -0.9945 0.0000 -0.1044
vn -0.9986 0.0000 -0.0523
vn -1.0000 0.0000 -0.0000
vn -0.9986 0.0000 0.0523
vn -0.9945 0.0000 0.1044
vn -0.9878 0.0000 0.1560
vn -0.9783 0.0000 0.2070
vn -0.9664 0.0000 0.2572
vn -0.9519 0.0000 0.3064
vn -0.9351 0.0000 0.3545
vn -0.9159 0.0000 0.4014
vn -0.8945 0.0000 0.4470
vn -0.8710 0.0000 0.4912
vn -0.8455 0.0000 0.5340
vn -0.8180 0.0000 0.5752
vn -0.7886 0.0000 0.6150
vn -0.7573 0.0000 0.6531
vn -0.7243 0.0000 0.6895
vn -0.6895 0.0000 0.7243
vn -0.6531 0.0000 0.7573
vn -0.6149 0.0000 0.7886
vn -0.5752 0.0000 0.8180
vn -0.5340 0.0000 0.8455
vn -0.4912 0.0000 0.8710
vn -0.4470 0.0000 0.8945
vn -0.4014 0.0000 0.9159
vn -0.3545 0.0000 0.9351
vn -0.3064 0.0000 0.9519
vn -0.2572 0.0000 0.9664
vn -0.2070 0.0000 0.9783
vn -0.1560 0.0000 0.9878
vn -0.1044 0.0000 0.9945
vn -0.0523 0.0000 0.9986
vn 0.0000 0.0000 1.0000
vn -0.0000 0.0000 1.0000
vn 0.0523 0.0000 0.9986
vn 0.1044 0.0000 0.9945
vn 0.1560 0.0000 0.9878
vn 0.2070 0.0000 0.9783
vn 0.2572 0.0000 0.9664
vn 0.3064 0.0000 0.9519
vn 0.3545 0.0000 0.9351
vn 0.4014 0.0000 0.9159
vn 0.4470 0.0000 0.8945
vn 0.4912 0.0000 0.8710
vn 0.5340 0.0000 0.8455
vn 0.5752 0.0000 0.8180
vn 0.6150 0.0000 0.7886
vn 0.6531 0.0000 0.7573
vn 0.6895 0.0000 0.7243
vn 0.7243 0.0000 0.6895
vn 0.7573 0.0000 0.6531
vn 0.7886 0.0000 0.6149
vn 0.8180 0.0000 0.5752
vn 0.8455 0.0000 0.5340
vn 0.8710 0.0000 0.4912
vn 0.8945 0.0000 0.4470
vn 0.9159 0.0000 0.4014
vn 0.9351 0.0000 0.3545
vn 0.9519 0.0000 0.3064
vn 0.9664 0.0000 0.2572
vn 0.9783 0.0000 0.2070
vn 0.9878 0.0000 0.1560
vn 0.9945 0.0000 0.1044
vn 0.9986 0.0000 0.0523
vn 0.0000 -1.0000 -0.0000
vn 0.0000 1.0000 -0.0000
# 128 vertex normals

g coins
s 1
f 1//1 2//2 3//3 4//1 
s 3
f 5//4 1//1 4//1 6//4 
s 2
f 7//5 5//4 6//4 8//5 
f 9//6 7//5 8//5 10//6 
f 11//7 9//6 10//6 12//7 
f 13//8 11//7 12//7 14//8 
f 15//9 13//8 14//8 16//9 
f 17//10 15//9 16//9 18//10 
f 19//11 17//10 18//10 20//11 
f 21//12 19//11 20//11 22//12 
f 23//13 21//12 22//12 24//13 
f 25//14 23//13 24//13 26//14 
f 27//15 25//14 26//14 28//15 
f 29//16 27//15 28//15 30//16 
f 31//17 29//16 30//16 32//17 
f 33//18 31//17 32//17 34//18 
f 35//19 33//18 34//18 36//19 
f 37//20 35//19 36//19 38//20 
f 39//21 37//20 38//20 40//21 
f 41//22 39//21 40//21 42//22 
f 43//23 41//22 42//22 44//23 
f 45//24 43//23 44//23 46//24 
f 47//25 45//24 46//24 48//25 
f 49//26 47//25 48//25 50//26 
f 51//27 49//26 50//26 52//27 
f 53//28 51//27 52//27 54//28 
f 55//29 53//28 54//28 56//29 
f 57//30 55//29 56//29 58//30 
f 59//31 57//30 58//30 60//31 
f 61//32 59//31 60//31 62//32 
f 63//33 61//32 62//32 64//33 
f 65//34 63//33 64//33 66//34 
f 67//35 65//34 66//34 68//35 
f 69//36 67//35 68//35 70//36 
f 71//37 69//36 70//36 72//37 
f 73//38 71//37 72//37 74//38 
f 75//39 73//38 74//38 76//39 
f 77//40 75//39 76//39 78//40 
f 79//41 77//40 78//40 80//41 
f 81//42 79//41 80//41 82//42 
f 83//43 81//42 82//42 84//43 
f 85//44 83//43 84//43 86//44 
f 87//45 85//44 86//44 88//45 
f 89//46 87//45 88//45 90//46 
f 91//47 89//46 90//46 92//47 
f 93//48 91//47 92//47 94//48 
f 95//49 93//48 94//48 96//49 
f 97//50 95//49 96//49 98//50 
f 99//51 97//50 98//50 100//51 
f 101//52 99//51 100//51 102//52 
f 103//53 101//52 102//52 104//53 
f 105//54 103//53 104//53 106//54 
f 107//55 105//54 106//54 108//55 
f 109//56 107//55 108//55 110//56 
f 111//57 109//56 110//56 112//57 
f 113//58 111//57 112//57 114//58 
f 115//59 113//58 114//58 116//59 
f 117//60 115//59 116//59 118//60 
f 119//61 117//60 118//60 120//61 
f 121//62 119//61 120//61 122//62 
f 123//63 121//62 122//62 124//63 
f 125//64 123//63 124//63 126//64 
f 127//65 125//64 126//64 128//65 
f 129//66 127//65 128//65 130//66 
f 131//67 129//66 130//66 132//67 
f 133//68 131//67 132//67 134//68 
f 135//69 133//68 134//68 136//69 
f 137//70 135//69 136//69 138//70 
f 139//71 137//70 138//70 140//71 
f 141//72 139//71 140//71 142//72 
f 143//73 141//72 142//72 144//73 
f 145//74 143//73 144//73 146//74 
f 147//75 145//74 146//74 148//75 
f 149//76 147//75 148//75 150//76 
f 151//77 149//76 150//76 152//77 
f 153//78 151//77 152//77 154//78 
f 155//79 153//78 154//78 156//79 
f 157//80 155//79 156//79 158//80 
f 159//81 157//80 158//80 160//81 
f 161//82 159//81 160//81 162//82 
f 163//83 161//82 162//82 164//83 
f 165//84 163//83 164//83 166//84 
f 167//85 165//84 166//84 168//85 
f 169//86 167//85 168//85 170//86 
f 171//87 169//86 170//86 172//87 
f 173//88 171//87 172//87 174//88 
f 175//89 173//88 174//88 176//89 
f 177//90 175//89 176//89 178//90 
f 179//91 177//90 178//90 180//91 
f 181//92 179//91 180//91 182//92 
f 183//93 181//92 182//92 184//93 
f 185//94 183//93 184//93 186//94 
f 187//95 185//94 186//94 188//96 
f 189//97 187//95 188//96 190//97 
f 191//98 189//97 190//97 192//98 
f 193//99 191//98 192//98 194//99 
f 195//100 193//99 194//99 196//100 
f 197//101 195//100 196//100 198//101 
f 199//102 197//101 198//101 200//102 
f 201//103 199//102 200//102 202//103 
f 203//104 201//103 202//103 204//104 
f 205//105 203//104 204//104 206//105 
f 207//106 205//105 206//105 208//106 
f 209//107 207//106 208//106 210//107 
f 211//108 209//107 210//107 212//108 
f 213//109 211//108 212//108 214//109 
f 215//110 213//109 214//109 216//110 
f 217//111 215//110 216//110 218//111 
f 219//112 217//111 218//111 220//112 
f 221//113 219//112 220//112 222//113 
f 223//114 221//113 222//113 224//114 
f 225//115 223//114 224//114 226//115 
f 227//116 225//115 226//115 228//116 
f 229//117 227//116 228//116 230//117 
f 231//118 229//117 230//117 232//118 
f 233//119 231//118 232//118 234//119 
f 235//120 233//119 234//119 236//120 
f 237//121 235//120 236//120 238//121 
f 239//122 237//121 238//121 240//122 
f 241//123 239//122 240//122 242//123 
f 243//124 241//123 242//123 244//124 
f 245//125 243//124 244//124 246//125 
f 247//126 245//125 246//125 248//126 
s 3
f 2//2 247//126 248//126 3//3 
s 16
f 84//127 82//127 80//127 78//127 
f 84//127 78//127 76//127 74//127 
f 84//127 74//127 72//127 70//127 
f 84//127 70//127 68//127 66//127 
f 84//127 66//127 64//127 62//127 
f 84//127 62//127 60//127 58//127 
f 84//127 58//127 56//127 54//127 
f 84//127 54//127 52//127 50//127 
f 84//127 50//127 48//127 46//127 
f 84//127 46//127 44//127 86//127 
f 86//127 44//127 42//127 40//127 
f 86//127 40//127 38//127 36//127 
f 86//127 36//127 34//127 32//127 
f 86//127 32//127 30//127 28//127 
f 86//127 28//127 26//127 24//127 
f 86//127 24//127 22//127 20//127 
f 86//127 20//127 18//127 16//127 
f 86//127 16//127 14//127 12//127 
f 86//127 12//127 10//127 8//127 
f 86//127 8//127 6//127 4//127 
f 86//127 4//127 3//127 248//127 
f 86//127 248//127 246//127 244//127 
f 86//127 244//127 242//127 240//127 
f 86//127 240//127 238//127 236//127 
f 86//127 236//127 234//127 232//127 
f 86//127 232//127 230//127 228//127 
f 86//127 228//127 226//127 88//127 
f 90//127 88//127 226//127 92//127 
f 94//127 92//127 226//127 96//127 
f 98//127 96//127 226//127 100//127 
f 102//127 100//127 226//127 104//127 
f 106//127 104//127 226//127 108//127 
f 110//127 108//127 226//127 112//127 
f 114//127 112//127 226//127 116//127 
f 118//127 116//127 226//127 120//127 
f 122//127 120//127 226//127 124//127 
f 126//127 124//127 226//127 128//127 
f 130//127 128//127 226//127 132//127 
f 134//127 132//127 226//127 136//127 
f 138//127 136//127 226//127 140//127 
f 142//127 140//127 226//127 144//127 
f 146//127 144//127 226//127 148//127 
f 150//127 148//127 226//127 224//127 
f 152//127 150//127 224//127 154//127 
f 154//127 224//127 222//127 220//127 
f 156//127 154//127 220//127 218//127 
f 158//127 156//127 218//127 160//127 
f 160//127 218//127 216//127 162//127 
f 162//127 216//127 214//127 164//127 
f 166//127 164//127 214//127 168//127 
f 170//127 168//127 214//127 172//127 
f 174//127 172//127 214//127 176//127 
f 178//127 176//127 214//127 180//127 
f 182//127 180//127 214//127 184//127 
f 184//127 214//127 212//127 186//127 
f 186//127 212//127 210//127 188//127 
f 188//127 210//127 208//127 206//127 
f 188//127 206//127 204//127 202//127 
f 188//127 202//127 200//127 198//127 
f 188//127 198//127 196//127 194//127 
f 188//127 194//127 192//127 190//127 
f 187//128 189//128 191//128 193//128 
f 187//128 193//128 195//128 197//128 
f 187//128 197//128 199//128 201//128 
f 187//128 201//128 203//128 205//128 
f 187//128 205//128 207//128 209//128 
f 79//128 81//128 83//128 77//128 
f 75//128 77//128 83//128 73//128 
f 71//128 73//128 83//128 69//128 
f 67//128 69//128 83//128 65//128 
f 63//128 65//128 83//128 61//128 
f 59//128 61//128 83//128 57//128 
f 55//128 57//128 83//128 53//128 
f 51//128 53//128 83//128 49//128 
f 47//128 49//128 83//128 45//128 
f 43//128 45//128 83//128 85//128 
f 41//128 43//128 85//128 39//128 
f 37//128 39//128 85//128 35//128 
f 33//128 35//128 85//128 31//128 
f 29//128 31//128 85//128 27//128 
f 25//128 27//128 85//128 23//128 
f 21//128 23//128 85//128 19//128 
f 17//128 19//128 85//128 15//128 
f 13//128 15//128 85//128 11//128 
f 9//128 11//128 85//128 7//128 
f 5//128 7//128 85//128 1//128 
f 2//128 1//128 85//128 247//128 
f 245//128 247//128 85//128 243//128 
f 241//128 243//128 85//128 239//128 
f 237//128 239//128 85//128 235//128 
f 233//128 235//128 85//128 231//128 
f 229//128 231//128 85//128 227//128 
f 225//128 227//128 85//128 87//128 
f 225//128 87//128 89//128 91//128 
f 225//128 91//128 93//128 95//128 
f 225//128 95//128 97//128 99//128 
f 225//128 99//128 101//128 103//128 
f 225//128 103//128 105//128 107//128 
f 225//128 107//128 109//128 111//128 
f 225//128 111//128 113//128 115//128 
f 225//128 115//128 117//128 119//128 
f 225//128 119//128 121//128 123//128 
f 225//128 123//128 125//128 127//128 
f 225//128 127//128 129//128 131//128 
f 225//128 131//128 133//128 135//128 
f 225//128 135//128 137//128 139//128 
f 225//128 139//128 141//128 143//128 
f 225//128 143//128 145//128 147//128 
f 225//128 147//128 149//128 223//128 
f 223//128 149//128 151//128 153//128 
f 221//128 223//128 153//128 219//128 
f 219//128 153//128 155//128 217//128 
f 217//128 155//128 157//128 159//128 
f 215//128 217//128 159//128 161//128 
f 213//128 215//128 161//128 163//128 
f 213//128 163//128 165//128 167//128 
f 213//128 167//128 169//128 171//128 
f 213//128 171//128 173//128 175//128 
f 213//128 175//128 177//128 179//128 
f 213//128 179//128 181//128 183//128 
f 211//128 213//128 183//128 185//128 
f 209//128 211//128 185//128 187//128 
# 246 polygons

