# 3ds Max Wavefront OBJ Exporter v0.97b - (c)2007 guruware
# File Created: 28.02.2016 16:19:05

#
# object first
#

v  25.7699 4.8000 -2.5053
v  26.5131 4.8000 -0.8897
v  26.5131 0.0000 -0.8897
v  25.7699 0.0000 -2.5053
v  24.3478 4.8000 -4.3467
v  24.3478 0.0000 -4.3467
v  22.1046 4.8000 -6.1778
v  22.1046 0.0000 -6.1778
v  18.8981 4.8000 -7.7625
v  18.8981 0.0000 -7.7625
v  14.5859 4.8000 -8.8647
v  14.5859 0.0000 -8.8647
v  9.0259 4.8000 -9.2481
v  9.0259 0.0000 -9.2481
v  2.0757 4.8000 -8.6768
v  2.0757 0.0000 -8.6768
v  2.0292 4.8000 -8.7287
v  2.0292 0.0000 -8.7287
v  1.9844 4.8000 -8.7805
v  1.9844 0.0000 -8.7805
v  1.9411 4.8000 -8.8322
v  1.9411 0.0000 -8.8322
v  1.8988 4.8000 -8.8838
v  1.8988 0.0000 -8.8838
v  1.8575 4.8000 -8.9354
v  1.8575 0.0000 -8.9354
v  1.8167 4.8000 -8.9870
v  1.8167 0.0000 -8.9870
v  1.7763 4.8000 -9.0385
v  1.7763 0.0000 -9.0385
v  0.8863 4.8000 -9.8167
v  0.8863 0.0000 -9.8167
v  -0.0589 4.8000 -10.5539
v  -0.0589 0.0000 -10.5539
v  -1.1148 4.8000 -11.2091
v  -1.1148 0.0000 -11.2091
v  -2.3365 4.8000 -11.7411
v  -2.3365 0.0000 -11.7411
v  -3.7795 4.8000 -12.1090
v  -3.7795 0.0000 -12.1090
v  -5.4990 4.8000 -12.2718
v  -5.4990 0.0000 -12.2718
v  -7.5504 4.8000 -12.1883
v  -7.5504 0.0000 -12.1883
v  -7.6029 4.8000 -12.1362
v  -7.6029 0.0000 -12.1362
v  -7.6451 4.8000 -12.0917
v  -7.6451 0.0000 -12.0917
v  -7.6787 4.8000 -12.0535
v  -7.6787 0.0000 -12.0535
v  -7.7055 4.8000 -12.0203
v  -7.7055 0.0000 -12.0203
v  -7.7271 4.8000 -11.9910
v  -7.7271 0.0000 -11.9910
v  -7.7452 4.8000 -11.9642
v  -7.7452 0.0000 -11.9642
v  -7.7617 4.8000 -11.9387
v  -7.7617 0.0000 -11.9387
v  -7.7889 4.8000 -11.7541
v  -7.7889 0.0000 -11.7541
v  -7.8076 4.8000 -11.5432
v  -7.8076 0.0000 -11.5432
v  -7.8093 4.8000 -11.2795
v  -7.8093 0.0000 -11.2795
v  -7.7854 4.8000 -10.9365
v  -7.7854 0.0000 -10.9365
v  -7.7274 4.8000 -10.4879
v  -7.7274 0.0000 -10.4879
v  -7.6268 4.8000 -9.9074
v  -7.6268 0.0000 -9.9074
v  -7.4751 4.8000 -9.1684
v  -7.4751 0.0000 -9.1684
v  -7.3144 4.8000 -8.4388
v  -7.3144 0.0000 -8.4388
v  -7.1889 4.8000 -7.8847
v  -7.1889 0.0000 -7.8847
v  -7.0926 4.8000 -7.4769
v  -7.0926 0.0000 -7.4769
v  -7.0197 4.8000 -7.1860
v  -7.0197 0.0000 -7.1860
v  -6.9643 4.8000 -6.9829
v  -6.9643 0.0000 -6.9829
v  -6.9206 4.8000 -6.8382
v  -6.9206 0.0000 -6.8382
v  -6.8828 4.8000 -6.7228
v  -6.8828 0.0000 -6.7228
v  -8.9603 4.8000 -6.6876
v  -8.9603 0.0000 -6.6876
v  -8.9793 4.8000 -5.8851
v  -8.9793 0.0000 -5.8851
v  -11.3867 4.8000 -6.3246
v  -11.3867 0.0000 -6.3246
v  -11.3920 4.8000 -0.0878
v  -11.3920 0.0000 -0.0878
v  -9.0801 4.8000 -0.5845
v  -9.0801 0.0000 -0.5845
v  -9.0609 4.8000 0.5427
v  -9.0609 0.0000 0.5427
v  -8.5069 4.8000 0.5045
v  -8.5069 0.0000 0.5045
v  -6.6727 4.8000 2.8737
v  -6.6727 0.0000 2.8737
v  -7.9940 4.8000 8.3607
v  -7.9940 0.0000 8.3607
v  -8.0299 4.8000 8.5768
v  -8.0299 0.0000 8.5768
v  -8.0624 4.8000 8.7956
v  -8.0624 0.0000 8.7956
v  -8.0879 4.8000 9.0197
v  -8.0879 0.0000 9.0197
v  -8.1030 4.8000 9.2518
v  -8.1030 0.0000 9.2518
v  -8.1043 4.8000 9.4946
v  -8.1043 0.0000 9.4946
v  -8.0882 4.8000 9.7507
v  -8.0882 0.0000 9.7507
v  -8.0513 4.8000 10.0229
v  -8.0513 0.0000 10.0229
v  -6.7701 4.8000 10.2121
v  -6.7701 0.0000 10.2121
v  -5.4052 4.8000 10.2129
v  -5.4052 0.0000 10.2129
v  -3.9896 4.8000 10.0098
v  -3.9896 0.0000 10.0098
v  -2.5566 4.8000 9.5874
v  -2.5566 0.0000 9.5874
v  -1.1394 4.8000 8.9304
v  -1.1394 0.0000 8.9304
v  0.2288 4.8000 8.0234
v  0.2288 0.0000 8.0234
v  1.5148 4.8000 6.8510
v  1.5148 0.0000 6.8510
v  5.4960 4.8000 7.2483
v  5.4960 0.0000 7.2483
v  5.5447 4.8000 8.4844
v  5.5447 0.0000 8.4844
v  5.6292 4.8000 8.8045
v  5.6292 0.0000 8.8045
v  5.7257 4.8000 9.1154
v  5.7257 0.0000 9.1154
v  5.8465 4.8000 9.4077
v  5.8465 0.0000 9.4077
v  6.0034 4.8000 9.6722
v  6.0034 0.0000 9.6722
v  6.2087 4.8000 9.8996
v  6.2087 0.0000 9.8996
v  6.4744 4.8000 10.0807
v  6.4744 0.0000 10.0807
v  6.8125 4.8000 10.2062
v  6.8125 0.0000 10.2062
v  13.2282 4.8000 10.2122
v  13.2282 0.0000 10.2122
v  13.6067 4.8000 10.0970
v  13.6067 0.0000 10.0970
v  13.9713 4.8000 9.9370
v  13.9713 0.0000 9.9370
v  14.3077 4.8000 9.6876
v  14.3077 0.0000 9.6876
v  14.6021 4.8000 9.3040
v  14.6021 0.0000 9.3040
v  14.8404 4.8000 8.7414
v  14.8404 0.0000 8.7414
v  15.0086 4.8000 7.9552
v  15.0086 0.0000 7.9552
v  15.0927 4.8000 6.9005
v  15.0927 0.0000 6.9005
v  15.2284 4.8000 6.8516
v  15.2284 0.0000 6.8516
v  15.3655 4.8000 6.8068
v  15.3655 0.0000 6.8068
v  15.5036 4.8000 6.7654
v  15.5036 0.0000 6.7654
v  15.6426 4.8000 6.7268
v  15.6426 0.0000 6.7268
v  15.7823 4.8000 6.6902
v  15.7823 0.0000 6.6902
v  15.9224 4.8000 6.6549
v  15.9224 0.0000 6.6549
v  16.0627 4.8000 6.6204
v  16.0627 0.0000 6.6204
v  17.7213 4.8000 6.1570
v  17.7213 0.0000 6.1570
v  19.3593 4.8000 5.6175
v  19.3593 0.0000 5.6175
v  20.9558 4.8000 4.9255
v  20.9558 0.0000 4.9255
v  22.4901 4.8000 4.0050
v  22.4901 0.0000 4.0050
v  23.9416 4.8000 2.7798
v  23.9416 0.0000 2.7798
v  25.2895 4.8000 1.1736
v  25.2895 0.0000 1.1736
# 192 vertices

vn 0.8554 0.0000 -0.5179
vn 0.9085 0.0000 -0.4179
vn 0.7166 0.0000 -0.6975
vn 0.5411 0.0000 -0.8409
vn 0.3472 0.0000 -0.9378
vn 0.1589 0.0000 -0.9873
vn -0.0066 0.0000 -1.0000
vn -0.0819 0.0000 -0.9966
vn 0.7505 0.0000 -0.6608
vn 0.7446 0.0000 -0.6675
vn 0.7613 0.0000 -0.6484
vn 0.7703 0.0000 -0.6377
vn 0.7773 0.0000 -0.6291
vn 0.7824 0.0000 -0.6228
vn 0.7854 0.0000 -0.6190
vn 0.7864 0.0000 -0.6177
vn 0.6369 0.0000 -0.7710
vn 0.6583 0.0000 -0.7528
vn 0.5719 0.0000 -0.8203
vn 0.4645 0.0000 -0.8856
vn 0.3242 0.0000 -0.9460
vn 0.1712 0.0000 -0.9852
vn 0.0269 0.0000 -0.9996
vn -0.0406 0.0000 -0.9992
vn -0.7151 0.0000 -0.6991
vn -0.7043 0.0000 -0.7099
vn -0.7383 0.0000 -0.6745
vn -0.7645 0.0000 -0.6446
vn -0.7919 0.0000 -0.6106
vn -0.8168 0.0000 -0.5769
vn -0.8345 0.0000 -0.5510
vn -0.8409 0.0000 -0.5412
vn -0.9931 0.0000 -0.1172
vn -0.9893 0.0000 -0.1460
vn -0.9989 0.0000 -0.0474
vn -0.9995 0.0000 0.0316
vn -0.9951 0.0000 0.0989
vn -0.9888 0.0000 0.1495
vn -0.9826 0.0000 0.1859
vn -0.9781 0.0000 0.2081
vn -0.9759 0.0000 0.2180
vn -0.9743 0.0000 0.2254
vn -0.9716 0.0000 0.2365
vn -0.9675 0.0000 0.2531
vn -0.9612 0.0000 0.2760
vn -0.9539 0.0000 0.3002
vn -0.9503 0.0000 0.3114
vn -0.0170 0.0000 -0.9999
vn -0.9997 0.0000 -0.0237
vn 0.1796 0.0000 -0.9837
vn -1.0000 0.0000 -0.0008
vn 0.2101 0.0000 0.9777
vn -0.9999 0.0000 0.0170
vn 0.0688 0.0000 0.9976
vn -0.7907 0.0000 0.6122
vn -0.9722 0.0000 -0.2341
vn -0.9879 0.0000 -0.1554
vn -0.9865 0.0000 -0.1640
vn -0.9915 0.0000 -0.1300
vn -0.9960 0.0000 -0.0891
vn -0.9994 0.0000 -0.0351
vn -0.9996 0.0000 0.0288
vn -0.9951 0.0000 0.0986
vn -0.9909 0.0000 0.1343
vn -0.0736 0.0000 0.9973
vn -0.1462 0.0000 0.9893
vn 0.0709 0.0000 0.9975
vn 0.2129 0.0000 0.9771
vn 0.3526 0.0000 0.9358
vn 0.4880 0.0000 0.8729
vn 0.6149 0.0000 0.7886
vn 0.6737 0.0000 0.7390
vn -0.0993 0.0000 0.9951
vn -0.9992 0.0000 0.0393
vn -0.9669 0.0000 0.2552
vn -0.9406 0.0000 0.3395
vn -0.8944 0.0000 0.4472
vn -0.8051 0.0000 0.5931
vn -0.6574 0.0000 0.7535
vn -0.4589 0.0000 0.8885
vn -0.3479 0.0000 0.9375
vn -0.0009 0.0000 1.0000
vn 0.3471 0.0000 0.9378
vn 0.2912 0.0000 0.9567
vn 0.5018 0.0000 0.8650
vn 0.7012 0.0000 0.7130
vn 0.8640 0.0000 0.5035
vn 0.9536 0.0000 0.3010
vn 0.9895 0.0000 0.1446
vn 0.9968 0.0000 0.0794
vn 0.3248 0.0000 0.9458
vn 0.3388 0.0000 0.9409
vn 0.2989 0.0000 0.9543
vn 0.2775 0.0000 0.9607
vn 0.2608 0.0000 0.9654
vn 0.2488 0.0000 0.9685
vn 0.2416 0.0000 0.9704
vn 0.2392 0.0000 0.9710
vn 0.2910 0.0000 0.9567
vn 0.2691 0.0000 0.9631
vn 0.3556 0.0000 0.9346
vn 0.4570 0.0000 0.8894
vn 0.5816 0.0000 0.8135
vn 0.7081 0.0000 0.7061
vn 0.8158 0.0000 0.5784
vn 0.8601 0.0000 0.5101
vn 0.0000 -1.0000 -0.0000
vn 0.0000 1.0000 -0.0000
# 108 vertex normals

g first
s 1
f 1//1 2//2 3//2 4//1 
s 3
f 5//3 1//1 4//1 6//3 
s 2
f 7//4 5//3 6//3 8//4 
f 9//5 7//4 8//4 10//5 
f 11//6 9//5 10//5 12//6 
f 13//7 11//6 12//6 14//7 
f 15//8 13//7 14//7 16//8 
s 4
f 17//9 15//10 16//10 18//9 
f 19//11 17//9 18//9 20//11 
f 21//12 19//11 20//11 22//12 
f 23//13 21//12 22//12 24//13 
f 25//14 23//13 24//13 26//14 
f 27//15 25//14 26//14 28//15 
f 29//16 27//15 28//15 30//16 
s 2
f 31//17 29//18 30//18 32//17 
f 33//19 31//17 32//17 34//19 
f 35//20 33//19 34//19 36//20 
f 37//21 35//20 36//20 38//21 
f 39//22 37//21 38//21 40//22 
f 41//23 39//22 40//22 42//23 
f 43//24 41//23 42//23 44//24 
s 4
f 45//25 43//26 44//26 46//25 
f 47//27 45//25 46//25 48//27 
f 49//28 47//27 48//27 50//28 
f 51//29 49//28 50//28 52//29 
f 53//30 51//29 52//29 54//30 
f 55//31 53//30 54//30 56//31 
f 57//32 55//31 56//31 58//32 
s 2
f 59//33 57//34 58//34 60//33 
f 61//35 59//33 60//33 62//35 
f 63//36 61//35 62//35 64//36 
f 65//37 63//36 64//36 66//37 
f 67//38 65//37 66//37 68//38 
f 69//39 67//38 68//38 70//39 
f 71//40 69//39 70//39 72//40 
f 73//41 71//40 72//40 74//41 
f 75//42 73//41 74//41 76//42 
f 77//43 75//42 76//42 78//43 
f 79//44 77//43 78//43 80//44 
f 81//45 79//44 80//44 82//45 
f 83//46 81//45 82//45 84//46 
f 85//47 83//46 84//46 86//47 
s 4
f 87//48 85//48 86//48 88//48 
s 2
f 89//49 87//49 88//49 90//49 
s 4
f 91//50 89//50 90//50 92//50 
s 2
f 93//51 91//51 92//51 94//51 
s 4
f 95//52 93//52 94//52 96//52 
s 2
f 97//53 95//53 96//53 98//53 
s 4
f 99//54 97//54 98//54 100//54 
s 2
f 101//55 99//55 100//55 102//55 
s 4
f 103//56 101//56 102//56 104//56 
s 2
f 105//57 103//58 104//58 106//57 
f 107//59 105//57 106//57 108//59 
f 109//60 107//59 108//59 110//60 
f 111//61 109//60 110//60 112//61 
f 113//62 111//61 112//61 114//62 
f 115//63 113//62 114//62 116//63 
f 117//64 115//63 116//63 118//64 
s 4
f 119//65 117//66 118//66 120//65 
f 121//67 119//65 120//65 122//67 
f 123//68 121//67 122//67 124//68 
f 125//69 123//68 124//68 126//69 
f 127//70 125//69 126//69 128//70 
f 129//71 127//70 128//70 130//71 
f 131//72 129//71 130//71 132//72 
s 2
f 133//73 131//73 132//73 134//73 
s 4
f 135//74 133//74 134//74 136//74 
s 2
f 137//45 135//75 136//75 138//45 
f 139//76 137//45 138//45 140//76 
f 141//77 139//76 140//76 142//77 
f 143//78 141//77 142//77 144//78 
f 145//79 143//78 144//78 146//79 
f 147//80 145//79 146//79 148//80 
f 149//81 147//80 148//80 150//81 
s 4
f 151//82 149//82 150//82 152//82 
s 2
f 153//83 151//84 152//84 154//83 
f 155//85 153//83 154//83 156//85 
f 157//86 155//85 156//85 158//86 
f 159//87 157//86 158//86 160//87 
f 161//88 159//87 160//87 162//88 
f 163//89 161//88 162//88 164//89 
f 165//90 163//89 164//89 166//90 
s 4
f 167//91 165//92 166//92 168//91 
f 169//93 167//91 168//91 170//93 
f 171//94 169//93 170//93 172//94 
f 173//95 171//94 172//94 174//95 
f 175//96 173//95 174//95 176//96 
f 177//97 175//96 176//96 178//97 
f 179//98 177//97 178//97 180//98 
s 2
f 181//99 179//100 180//100 182//99 
f 183//101 181//99 182//99 184//101 
f 185//102 183//101 184//101 186//102 
f 187//103 185//102 186//102 188//103 
f 189//104 187//103 188//103 190//104 
f 191//105 189//104 190//104 192//105 
f 2//106 191//105 192//105 3//106 
s 16
f 4//107 3//107 192//107 6//107 
f 6//107 192//107 190//107 8//107 
f 8//107 190//107 188//107 10//107 
f 10//107 188//107 186//107 184//107 
f 10//107 184//107 182//107 12//107 
f 12//107 182//107 180//107 178//107 
f 14//107 12//107 178//107 176//107 
f 14//107 176//107 174//107 172//107 
f 14//107 172//107 170//107 168//107 
f 14//107 168//107 166//107 16//107 
f 16//107 166//107 164//107 162//107 
f 16//107 162//107 160//107 158//107 
f 16//107 158//107 156//107 154//107 
f 16//107 154//107 152//107 150//107 
f 16//107 150//107 148//107 146//107 
f 146//107 144//107 142//107 140//107 
f 146//107 140//107 138//107 136//107 
f 146//107 136//107 134//107 16//107 
f 18//107 16//107 134//107 20//107 
f 22//107 20//107 134//107 24//107 
f 26//107 24//107 134//107 28//107 
f 30//107 28//107 134//107 32//107 
f 34//107 32//107 134//107 36//107 
f 120//107 118//107 116//107 114//107 
f 120//107 114//107 112//107 110//107 
f 120//107 110//107 108//107 106//107 
f 122//107 120//107 106//107 104//107 
f 122//107 104//107 102//107 124//107 
f 126//107 124//107 102//107 128//107 
f 130//107 128//107 102//107 132//107 
f 100//107 98//107 96//107 86//107 
f 96//107 94//107 92//107 90//107 
f 90//107 88//107 86//107 96//107 
f 102//107 100//107 86//107 132//107 
f 134//107 132//107 86//107 36//107 
f 36//107 86//107 84//107 82//107 
f 36//107 82//107 80//107 78//107 
f 38//107 36//107 78//107 76//107 
f 38//107 76//107 74//107 40//107 
f 40//107 74//107 72//107 42//107 
f 42//107 72//107 70//107 68//107 
f 42//107 68//107 66//107 64//107 
f 42//107 64//107 62//107 60//107 
f 42//107 60//107 58//107 56//107 
f 42//107 56//107 54//107 52//107 
f 42//107 52//107 50//107 48//107 
f 42//107 48//107 46//107 44//107 
f 41//108 43//108 45//108 47//108 
f 41//108 47//108 49//108 51//108 
f 41//108 51//108 53//108 55//108 
f 41//108 55//108 57//108 59//108 
f 41//108 59//108 61//108 63//108 
f 41//108 63//108 65//108 67//108 
f 41//108 67//108 69//108 71//108 
f 85//108 87//108 89//108 95//108 
f 91//108 93//108 95//108 89//108 
f 95//108 97//108 99//108 85//108 
f 85//108 99//108 101//108 131//108 
f 115//108 117//108 119//108 113//108 
f 111//108 113//108 119//108 109//108 
f 107//108 109//108 119//108 105//108 
f 105//108 119//108 121//108 103//108 
f 101//108 103//108 121//108 123//108 
f 101//108 123//108 125//108 127//108 
f 101//108 127//108 129//108 131//108 
f 85//108 131//108 133//108 35//108 
f 141//108 143//108 145//108 139//108 
f 137//108 139//108 145//108 135//108 
f 133//108 135//108 145//108 15//108 
f 191//108 2//108 1//108 5//108 
f 189//108 191//108 5//108 7//108 
f 187//108 189//108 7//108 9//108 
f 185//108 187//108 9//108 183//108 
f 181//108 183//108 9//108 11//108 
f 179//108 181//108 11//108 177//108 
f 177//108 11//108 13//108 175//108 
f 173//108 175//108 13//108 171//108 
f 169//108 171//108 13//108 167//108 
f 165//108 167//108 13//108 15//108 
f 163//108 165//108 15//108 161//108 
f 159//108 161//108 15//108 157//108 
f 155//108 157//108 15//108 153//108 
f 151//108 153//108 15//108 149//108 
f 147//108 149//108 15//108 145//108 
f 133//108 15//108 17//108 19//108 
f 133//108 19//108 21//108 23//108 
f 133//108 23//108 25//108 27//108 
f 133//108 27//108 29//108 31//108 
f 133//108 31//108 33//108 35//108 
f 83//108 85//108 35//108 81//108 
f 79//108 81//108 35//108 77//108 
f 77//108 35//108 37//108 75//108 
f 73//108 75//108 37//108 39//108 
f 71//108 73//108 39//108 41//108 
# 190 polygons

