# 3ds Max Wavefront OBJ Exporter v0.97b - (c)2007 guruware
# File Created: 28.02.2016 16:26:21

#
# object prestige
#

v  -0.3207 0.0984 -0.9851
v  -0.1884 0.0984 -1.0482
v  -0.1884 0.0000 -1.0482
v  -0.3207 0.0000 -0.9851
v  -0.4429 0.0984 -0.9628
v  -0.4429 0.0000 -0.9628
v  -0.5571 0.0984 -0.9732
v  -0.5571 0.0000 -0.9732
v  -0.6652 0.0984 -1.0081
v  -0.6652 0.0000 -1.0081
v  -0.7693 0.0984 -1.0592
v  -0.7693 0.0000 -1.0592
v  -0.8714 0.0984 -1.1185
v  -0.8714 0.0000 -1.1185
v  -1.2032 0.0984 -1.1225
v  -1.2032 0.0000 -1.1225
v  -1.2639 0.0984 -1.1208
v  -1.2639 0.0000 -1.1208
v  -1.2948 0.0984 -1.1040
v  -1.2948 0.0000 -1.1040
v  -1.3165 0.0984 -1.0868
v  -1.3165 0.0000 -1.0868
v  -1.3305 0.0984 -1.0691
v  -1.3305 0.0000 -1.0691
v  -1.3385 0.0984 -1.0511
v  -1.3385 0.0000 -1.0511
v  -1.3419 0.0984 -1.0329
v  -1.3419 0.0000 -1.0329
v  -1.3422 0.0984 -1.0145
v  -1.3422 0.0000 -1.0145
v  -1.3410 0.0984 -0.9960
v  -1.3410 0.0000 -0.9960
v  -1.3410 0.0984 -0.5060
v  -1.3410 0.0000 -0.5060
v  -1.3413 0.0984 -0.5050
v  -1.3413 0.0000 -0.5050
v  -1.3416 0.0984 -0.5037
v  -1.3416 0.0000 -0.5037
v  -1.3418 0.0984 -0.5019
v  -1.3418 0.0000 -0.5019
v  -1.3419 0.0984 -0.4994
v  -1.3419 0.0000 -0.4994
v  -1.3418 0.0984 -0.4959
v  -1.3418 0.0000 -0.4959
v  -1.3414 0.0984 -0.4912
v  -1.3414 0.0000 -0.4912
v  -1.3408 0.0984 -0.4851
v  -1.3408 0.0000 -0.4851
v  -1.2830 0.0984 -0.4254
v  -1.2830 0.0000 -0.4254
v  -1.2434 0.0984 -0.3684
v  -1.2434 0.0000 -0.3684
v  -1.2191 0.0984 -0.3137
v  -1.2191 0.0000 -0.3137
v  -1.2071 0.0984 -0.2608
v  -1.2071 0.0000 -0.2608
v  -1.2042 0.0984 -0.2093
v  -1.2042 0.0000 -0.2093
v  -1.2075 0.0984 -0.1587
v  -1.2075 0.0000 -0.1587
v  -1.2138 0.0984 -0.1085
v  -1.2138 0.0000 -0.1085
v  -1.2705 0.0984 0.4637
v  -1.2705 0.0000 0.4637
v  -1.2712 0.0984 0.4699
v  -1.2712 0.0000 0.4699
v  -1.2719 0.0984 0.4764
v  -1.2719 0.0000 0.4764
v  -1.2726 0.0984 0.4835
v  -1.2726 0.0000 0.4835
v  -1.2732 0.0984 0.4913
v  -1.2732 0.0000 0.4913
v  -1.2739 0.0984 0.5003
v  -1.2739 0.0000 0.5003
v  -1.2745 0.0984 0.5107
v  -1.2745 0.0000 0.5107
v  -1.2751 0.0984 0.5227
v  -1.2751 0.0000 0.5227
v  -1.2577 0.0984 0.7288
v  -1.2577 0.0000 0.7288
v  -1.2173 0.0984 0.8914
v  -1.2173 0.0000 0.8914
v  -1.1577 0.0984 1.0178
v  -1.1577 0.0000 1.0178
v  -1.0827 0.0984 1.1153
v  -1.0827 0.0000 1.1153
v  -0.9962 0.0984 1.1910
v  -0.9962 0.0000 1.1910
v  -0.9021 0.0984 1.2522
v  -0.9021 0.0000 1.2522
v  -0.8041 0.0984 1.3062
v  -0.8041 0.0000 1.3062
v  -0.8014 0.0984 1.3070
v  -0.8014 0.0000 1.3070
v  -0.7986 0.0984 1.3079
v  -0.7986 0.0000 1.3079
v  -0.7957 0.0984 1.3090
v  -0.7957 0.0000 1.3090
v  -0.7925 0.0984 1.3103
v  -0.7925 0.0000 1.3103
v  -0.7890 0.0984 1.3119
v  -0.7890 0.0000 1.3119
v  -0.7850 0.0984 1.3139
v  -0.7850 0.0000 1.3139
v  -0.7805 0.0984 1.3163
v  -0.7805 0.0000 1.3163
v  -0.5852 0.0984 1.3639
v  -0.5852 0.0000 1.3639
v  -0.4336 0.0984 1.4194
v  -0.4336 0.0000 1.4194
v  -0.3179 0.0984 1.4803
v  -0.3179 0.0000 1.4803
v  -0.2303 0.0984 1.5442
v  -0.2303 0.0000 1.5442
v  -0.1629 0.0984 1.6084
v  -0.1629 0.0000 1.6084
v  -0.1080 0.0984 1.6706
v  -0.1080 0.0000 1.6706
v  -0.0577 0.0984 1.7282
v  -0.0577 0.0000 1.7282
v  -0.0107 0.0984 1.7721
v  -0.0107 0.0000 1.7721
v  0.0299 0.0984 1.7972
v  0.0299 0.0000 1.7972
v  0.0652 0.0984 1.8066
v  0.0652 0.0000 1.8066
v  0.0962 0.0984 1.8034
v  0.0962 0.0000 1.8034
v  0.1240 0.0984 1.7908
v  0.1240 0.0000 1.7908
v  0.1496 0.0984 1.7719
v  0.1496 0.0000 1.7719
v  0.1742 0.0984 1.7498
v  0.1742 0.0000 1.7498
v  0.1873 0.0984 1.7372
v  0.1873 0.0000 1.7372
v  0.3034 0.0984 1.6219
v  0.3034 0.0000 1.6219
v  0.3989 0.0984 1.5336
v  0.3989 0.0000 1.5336
v  0.4802 0.0984 1.4683
v  0.4802 0.0000 1.4683
v  0.5534 0.0984 1.4218
v  0.5534 0.0000 1.4218
v  0.6247 0.0984 1.3899
v  0.6247 0.0000 1.3899
v  0.7003 0.0984 1.3685
v  0.7003 0.0000 1.3685
v  0.7864 0.0984 1.3534
v  0.7864 0.0000 1.3534
v  0.8771 0.0984 1.3299
v  0.8771 0.0000 1.3299
v  0.9572 0.0984 1.2996
v  0.9572 0.0000 1.2996
v  1.0258 0.0984 1.2658
v  1.0258 0.0000 1.2658
v  1.0821 0.0984 1.2320
v  1.0821 0.0000 1.2320
v  1.1254 0.0984 1.2017
v  1.1254 0.0000 1.2017
v  1.1549 0.0984 1.1782
v  1.1549 0.0000 1.1782
v  1.1698 0.0984 1.1651
v  1.1698 0.0000 1.1651
v  1.1750 0.0984 1.1600
v  1.1750 0.0000 1.1600
v  1.1789 0.0984 1.1564
v  1.1789 0.0000 1.1564
v  1.1820 0.0984 1.1535
v  1.1820 0.0000 1.1535
v  1.1848 0.0984 1.1508
v  1.1848 0.0000 1.1508
v  1.1877 0.0984 1.1476
v  1.1877 0.0000 1.1476
v  1.1914 0.0984 1.1431
v  1.1914 0.0000 1.1431
v  1.1963 0.0984 1.1368
v  1.1963 0.0000 1.1368
v  1.2912 0.0984 1.0267
v  1.2912 0.0000 1.0267
v  1.3557 0.0984 0.9143
v  1.3557 0.0000 0.9143
v  1.3948 0.0984 0.8001
v  1.3948 0.0000 0.8001
v  1.4136 0.0984 0.6844
v  1.4136 0.0000 0.6844
v  1.4172 0.0984 0.5676
v  1.4172 0.0000 0.5676
v  1.4106 0.0984 0.4500
v  1.4106 0.0000 0.4500
v  1.3990 0.0984 0.3321
v  1.3990 0.0000 0.3321
v  1.3513 0.0984 -0.1698
v  1.3513 0.0000 -0.1698
v  1.3506 0.0984 -0.2295
v  1.3506 0.0000 -0.2295
v  1.3590 0.0984 -0.2830
v  1.3590 0.0000 -0.2830
v  1.3751 0.0984 -0.3312
v  1.3751 0.0000 -0.3312
v  1.3973 0.0984 -0.3751
v  1.3973 0.0000 -0.3751
v  1.4241 0.0984 -0.4160
v  1.4241 0.0000 -0.4160
v  1.4539 0.0984 -0.4548
v  1.4539 0.0000 -0.4548
v  1.4853 0.0984 -0.4925
v  1.4853 0.0000 -0.4925
v  1.4853 0.0984 -1.0210
v  1.4853 0.0000 -1.0210
v  1.4805 0.0984 -1.0387
v  1.4805 0.0000 -1.0387
v  1.4706 0.0984 -1.0547
v  1.4706 0.0000 -1.0547
v  1.4564 0.0984 -1.0695
v  1.4564 0.0000 -1.0695
v  1.4388 0.0984 -1.0832
v  1.4388 0.0000 -1.0832
v  1.4187 0.0984 -1.0962
v  1.4187 0.0000 -1.0962
v  1.3968 0.0984 -1.1087
v  1.3968 0.0000 -1.1087
v  1.3741 0.0984 -1.1209
v  1.3741 0.0000 -1.1209
v  1.0659 0.0984 -1.1218
v  1.0659 0.0000 -1.1218
v  1.0589 0.0984 -1.1217
v  1.0589 0.0000 -1.1217
v  1.0516 0.0984 -1.1216
v  1.0516 0.0000 -1.1216
v  1.0442 0.0984 -1.1213
v  1.0442 0.0000 -1.1213
v  1.0363 0.0984 -1.1207
v  1.0363 0.0000 -1.1207
v  1.0279 0.0984 -1.1197
v  1.0279 0.0000 -1.1197
v  1.0188 0.0984 -1.1183
v  1.0188 0.0000 -1.1183
v  1.0089 0.0984 -1.1163
v  1.0089 0.0000 -1.1163
v  0.8336 0.0984 -1.0161
v  0.8336 0.0000 -1.0161
v  0.6788 0.0984 -0.9687
v  0.6788 0.0000 -0.9687
v  0.5440 0.0984 -0.9638
v  0.5440 0.0000 -0.9638
v  0.4288 0.0984 -0.9905
v  0.4288 0.0000 -0.9905
v  0.3328 0.0984 -1.0384
v  0.3328 0.0000 -1.0384
v  0.2553 0.0984 -1.0968
v  0.2553 0.0000 -1.0968
v  0.1960 0.0984 -1.1551
v  0.1960 0.0000 -1.1551
v  0.1490 0.0984 -1.1988
v  0.1490 0.0000 -1.1988
v  0.1078 0.0984 -1.2227
v  0.1078 0.0000 -1.2227
v  0.0715 0.0984 -1.2300
v  0.0715 0.0000 -1.2300
v  0.0392 0.0984 -1.2241
v  0.0392 0.0000 -1.2241
v  0.0098 0.0984 -1.2083
v  0.0098 0.0000 -1.2083
v  -0.0176 0.0984 -1.1859
v  -0.0176 0.0000 -1.1859
v  -0.0440 0.0984 -1.1602
v  -0.0440 0.0000 -1.1602
# 268 vertices

vn -0.3075 0.0000 -0.9516
vn -0.5247 0.0000 -0.8513
vn -0.0448 0.0000 -0.9990
vn 0.1998 0.0000 -0.9798
vn 0.3749 0.0000 -0.9271
vn 0.4721 0.0000 -0.8816
vn 0.5024 0.0000 -0.8646
vn 0.0118 0.0000 -0.9999
vn -0.0270 0.0000 -0.9996
vn -0.5522 0.0000 -0.8337
vn -0.4777 0.0000 -0.8785
vn -0.7068 0.0000 -0.7074
vn -0.8552 0.0000 -0.5183
vn -0.9553 0.0000 -0.2957
vn -0.9950 0.0000 -0.1002
vn -0.9997 0.0000 0.0239
vn -0.9979 0.0000 0.0652
vn -1.0000 0.0000 -0.0000
vn -0.9646 0.0000 -0.2636
vn -0.9511 0.0000 -0.3090
vn -0.9861 0.0000 -0.1664
vn -0.9975 0.0000 -0.0712
vn -1.0000 0.0000 0.0039
vn -0.9985 0.0000 0.0542
vn -0.9962 0.0000 0.0875
vn -0.9948 0.0000 0.1017
vn -0.7725 0.0000 0.6350
vn -0.7182 0.0000 0.6958
vn -0.8718 0.0000 0.4899
vn -0.9491 0.0000 0.3151
vn -0.9903 0.0000 0.1393
vn -1.0000 0.0000 -0.0041
vn -0.9955 0.0000 -0.0944
vn -0.9922 0.0000 -0.1247
vn -0.9951 0.0000 -0.0987
vn -0.9942 0.0000 -0.1079
vn -0.9940 0.0000 -0.1096
vn -0.9949 0.0000 -0.1005
vn -0.9960 0.0000 -0.0894
vn -0.9970 0.0000 -0.0772
vn -0.9979 0.0000 -0.0646
vn -0.9986 0.0000 -0.0533
vn -0.9989 0.0000 -0.0476
vn -0.9866 0.0000 0.1631
vn -0.9965 0.0000 0.0840
vn -0.9421 0.0000 0.3354
vn -0.8535 0.0000 0.5211
vn -0.7292 0.0000 0.6843
vn -0.6035 0.0000 0.7974
vn -0.5142 0.0000 0.8577
vn -0.4825 0.0000 0.8759
vn -0.3034 0.0000 0.9529
vn -0.2949 0.0000 0.9555
vn -0.3262 0.0000 0.9453
vn -0.3581 0.0000 0.9337
vn -0.3949 0.0000 0.9187
vn -0.4317 0.0000 0.9020
vn -0.4654 0.0000 0.8851
vn -0.4815 0.0000 0.8765
vn -0.2907 0.0000 0.9568
vn -0.2367 0.0000 0.9716
vn -0.4057 0.0000 0.9140
vn -0.5287 0.0000 0.8488
vn -0.6408 0.0000 0.7677
vn -0.7204 0.0000 0.6936
vn -0.7513 0.0000 0.6600
vn -0.7191 0.0000 0.6949
vn -0.6075 0.0000 0.7943
vn -0.3958 0.0000 0.9183
vn -0.0785 0.0000 0.9969
vn 0.2616 0.0000 0.9652
vn 0.5064 0.0000 0.8623
vn 0.6314 0.0000 0.7754
vn 0.6679 0.0000 0.7443
vn 0.6911 0.0000 0.7228
vn 0.6919 0.0000 0.7220
vn 0.7050 0.0000 0.7092
vn 0.6529 0.0000 0.7574
vn 0.5824 0.0000 0.8129
vn 0.4737 0.0000 0.8807
vn 0.3413 0.0000 0.9400
vn 0.2227 0.0000 0.9749
vn 0.1723 0.0000 0.9850
vn 0.3027 0.0000 0.9531
vn 0.2502 0.0000 0.9682
vn 0.3985 0.0000 0.9171
vn 0.4785 0.0000 0.8781
vn 0.5445 0.0000 0.8388
vn 0.5985 0.0000 0.8011
vn 0.6423 0.0000 0.7664
vn 0.6617 0.0000 0.7498
vn 0.6907 0.0000 0.7232
vn 0.6989 0.0000 0.7152
vn 0.6794 0.0000 0.7337
vn 0.6875 0.0000 0.7262
vn 0.7180 0.0000 0.6961
vn 0.7542 0.0000 0.6567
vn 0.7811 0.0000 0.6244
vn 0.7912 0.0000 0.6115
vn 0.8162 0.0000 0.5778
vn 0.7575 0.0000 0.6528
vn 0.9109 0.0000 0.4127
vn 0.9700 0.0000 0.2431
vn 0.9954 0.0000 0.0958
vn 0.9999 0.0000 -0.0125
vn 0.9970 0.0000 -0.0769
vn 0.9952 0.0000 -0.0981
vn 0.9986 0.0000 -0.0535
vn 0.9955 0.0000 -0.0945
vn 0.9974 0.0000 0.0721
vn 0.9715 0.0000 0.2371
vn 0.9231 0.0000 0.3845
vn 0.8660 0.0000 0.5001
vn 0.8149 0.0000 0.5796
vn 0.7807 0.0000 0.6249
vn 0.7687 0.0000 0.6396
vn 0.9912 0.0000 -0.1324
vn 1.0000 0.0000 -0.0000
vn 0.9175 0.0000 -0.3978
vn 0.7909 0.0000 -0.6120
vn 0.6705 0.0000 -0.7419
vn 0.5791 0.0000 -0.8152
vn 0.5184 0.0000 -0.8551
vn 0.4842 0.0000 -0.8749
vn 0.4732 0.0000 -0.8810
vn 0.0029 0.0000 -1.0000
vn -0.0127 0.0000 -0.9999
vn -0.0065 0.0000 -1.0000
vn -0.0309 0.0000 -0.9995
vn -0.0588 0.0000 -0.9983
vn -0.0939 0.0000 -0.9956
vn -0.1334 0.0000 -0.9911
vn -0.1742 0.0000 -0.9847
vn -0.1945 0.0000 -0.9809
vn -0.3969 0.0000 -0.9179
vn -0.4965 0.0000 -0.8680
vn -0.1660 0.0000 -0.9861
vn 0.0955 0.0000 -0.9954
vn 0.3385 0.0000 -0.9410
vn 0.5263 0.0000 -0.8503
vn 0.6531 0.0000 -0.7573
vn 0.6909 0.0000 -0.7229
vn 0.5947 0.0000 -0.8040
vn 0.3547 0.0000 -0.9350
vn 0.0099 0.0000 -1.0000
vn -0.3303 0.0000 -0.9439
vn -0.5558 0.0000 -0.8313
vn -0.6658 0.0000 -0.7461
vn -0.6974 0.0000 -0.7167
vn -0.6130 0.0000 -0.7901
vn 0.0000 -1.0000 -0.0000
vn 0.0000 1.0000 -0.0000
# 152 vertex normals

g prestige
s 1
f 1//1 2//2 3//2 4//1 
s 3
f 5//3 1//1 4//1 6//3 
s 2
f 7//4 5//3 6//3 8//4 
f 9//5 7//4 8//4 10//5 
f 11//6 9//5 10//5 12//6 
f 13//7 11//6 12//6 14//7 
s 4
f 15//8 13//8 14//8 16//8 
s 2
f 17//9 15//9 16//9 18//9 
s 4
f 19//10 17//11 18//11 20//10 
f 21//12 19//10 20//10 22//12 
f 23//13 21//12 22//12 24//13 
f 25//14 23//13 24//13 26//14 
f 27//15 25//14 26//14 28//15 
f 29//16 27//15 28//15 30//16 
f 31//17 29//16 30//16 32//17 
s 2
f 33//18 31//18 32//18 34//18 
s 4
f 35//19 33//20 34//20 36//19 
f 37//21 35//19 36//19 38//21 
f 39//22 37//21 38//21 40//22 
f 41//23 39//22 40//22 42//23 
f 43//24 41//23 42//23 44//24 
f 45//25 43//24 44//24 46//25 
f 47//26 45//25 46//25 48//26 
s 2
f 49//27 47//28 48//28 50//27 
f 51//29 49//27 50//27 52//29 
f 53//30 51//29 52//29 54//30 
f 55//31 53//30 54//30 56//31 
f 57//32 55//31 56//31 58//32 
f 59//33 57//32 58//32 60//33 
f 61//34 59//33 60//33 62//34 
s 4
f 63//35 61//35 62//35 64//35 
s 2
f 65//36 63//37 64//37 66//36 
f 67//38 65//36 66//36 68//38 
f 69//39 67//38 68//38 70//39 
f 71//40 69//39 70//39 72//40 
f 73//41 71//40 72//40 74//41 
f 75//42 73//41 74//41 76//42 
f 77//43 75//42 76//42 78//43 
s 4
f 79//44 77//45 78//45 80//44 
f 81//46 79//44 80//44 82//46 
f 83//47 81//46 82//46 84//47 
f 85//48 83//47 84//47 86//48 
f 87//49 85//48 86//48 88//49 
f 89//50 87//49 88//49 90//50 
f 91//51 89//50 90//50 92//51 
s 2
f 93//52 91//53 92//53 94//52 
f 95//54 93//52 94//52 96//54 
f 97//55 95//54 96//54 98//55 
f 99//56 97//55 98//55 100//56 
f 101//57 99//56 100//56 102//57 
f 103//58 101//57 102//57 104//58 
f 105//59 103//58 104//58 106//59 
s 4
f 107//60 105//61 106//61 108//60 
f 109//62 107//60 108//60 110//62 
f 111//63 109//62 110//62 112//63 
f 113//64 111//63 112//63 114//64 
f 115//65 113//64 114//64 116//65 
f 117//66 115//65 116//65 118//66 
f 119//67 117//66 118//66 120//67 
f 121//68 119//67 120//67 122//68 
f 123//69 121//68 122//68 124//69 
f 125//70 123//69 124//69 126//70 
f 127//71 125//70 126//70 128//71 
f 129//72 127//71 128//71 130//72 
f 131//73 129//72 130//72 132//73 
f 133//74 131//73 132//73 134//74 
s 2
f 135//75 133//75 134//75 136//75 
s 4
f 137//76 135//77 136//77 138//76 
f 139//78 137//76 138//76 140//78 
f 141//79 139//78 140//78 142//79 
f 143//80 141//79 142//79 144//80 
f 145//81 143//80 144//80 146//81 
f 147//82 145//81 146//81 148//82 
f 149//83 147//82 148//82 150//83 
s 2
f 151//84 149//85 150//85 152//84 
f 153//86 151//84 152//84 154//86 
f 155//87 153//86 154//86 156//87 
f 157//88 155//87 156//87 158//88 
f 159//89 157//88 158//88 160//89 
f 161//90 159//89 160//89 162//90 
f 163//91 161//90 162//90 164//91 
s 4
f 165//92 163//93 164//93 166//92 
f 167//94 165//92 166//92 168//94 
f 169//95 167//94 168//94 170//95 
f 171//96 169//95 170//95 172//96 
f 173//97 171//96 172//96 174//97 
f 175//98 173//97 174//97 176//98 
f 177//99 175//98 176//98 178//99 
s 2
f 179//100 177//101 178//101 180//100 
f 181//102 179//100 180//100 182//102 
f 183//103 181//102 182//102 184//103 
f 185//104 183//103 184//103 186//104 
f 187//105 185//104 186//104 188//105 
f 189//106 187//105 188//105 190//106 
f 191//107 189//106 190//106 192//107 
s 4
f 193//108 191//109 192//109 194//108 
f 195//110 193//108 194//108 196//110 
f 197//111 195//110 196//110 198//111 
f 199//112 197//111 198//111 200//112 
f 201//113 199//112 200//112 202//113 
f 203//114 201//113 202//113 204//114 
f 205//115 203//114 204//114 206//115 
f 207//116 205//115 206//115 208//116 
s 2
f 209//117 207//118 208//118 210//117 
f 211//119 209//117 210//117 212//119 
f 213//120 211//119 212//119 214//120 
f 215//121 213//120 214//120 216//121 
f 217//122 215//121 216//121 218//122 
f 219//123 217//122 218//122 220//123 
f 221//124 219//123 220//123 222//124 
f 223//125 221//124 222//124 224//125 
s 4
f 225//126 223//126 224//126 226//126 
s 2
f 227//127 225//128 226//128 228//127 
f 229//129 227//127 228//127 230//129 
f 231//130 229//129 230//129 232//130 
f 233//131 231//130 232//130 234//131 
f 235//132 233//131 234//131 236//132 
f 237//133 235//132 236//132 238//133 
f 239//134 237//133 238//133 240//134 
s 4
f 241//135 239//136 240//136 242//135 
f 243//137 241//135 242//135 244//137 
f 245//138 243//137 244//137 246//138 
f 247//139 245//138 246//138 248//139 
f 249//140 247//139 248//139 250//140 
f 251//141 249//140 250//140 252//141 
f 253//142 251//141 252//141 254//142 
f 255//143 253//142 254//142 256//143 
f 257//144 255//143 256//143 258//144 
f 259//145 257//144 258//144 260//145 
f 261//146 259//145 260//145 262//146 
f 263//147 261//146 262//146 264//147 
f 265//148 263//147 264//147 266//148 
f 267//149 265//148 266//148 268//149 
s 3
f 2//2 267//150 268//150 3//2 
s 16
f 210//151 208//151 206//151 204//151 
f 210//151 204//151 202//151 226//151 
f 50//151 48//151 46//151 44//151 
f 50//151 44//151 42//151 40//151 
f 50//151 40//151 38//151 36//151 
f 50//151 36//151 34//151 32//151 
f 52//151 50//151 32//151 10//151 
f 28//151 26//151 24//151 22//151 
f 30//151 28//151 22//151 20//151 
f 32//151 30//151 20//151 18//151 
f 32//151 18//151 16//151 12//151 
f 16//151 14//151 12//151 
f 32//151 12//151 10//151 
f 54//151 52//151 10//151 8//151 
f 56//151 54//151 8//151 58//151 
f 60//151 58//151 8//151 62//151 
f 64//151 62//151 8//151 66//151 
f 68//151 66//151 8//151 70//151 
f 72//151 70//151 8//151 74//151 
f 76//151 74//151 8//151 78//151 
f 80//151 78//151 8//151 82//151 
f 84//151 82//151 8//151 86//151 
f 88//151 86//151 8//151 90//151 
f 92//151 90//151 8//151 94//151 
f 96//151 94//151 8//151 98//151 
f 100//151 98//151 8//151 102//151 
f 104//151 102//151 8//151 106//151 
f 108//151 106//151 8//151 110//151 
f 112//151 110//151 8//151 114//151 
f 116//151 114//151 8//151 118//151 
f 120//151 118//151 8//151 122//151 
f 124//151 122//151 8//151 126//151 
f 128//151 126//151 8//151 130//151 
f 132//151 130//151 8//151 134//151 
f 136//151 134//151 8//151 6//151 
f 136//151 6//151 4//151 3//151 
f 136//151 3//151 268//151 266//151 
f 136//151 266//151 264//151 262//151 
f 136//151 262//151 260//151 258//151 
f 136//151 258//151 256//151 254//151 
f 136//151 254//151 252//151 138//151 
f 140//151 138//151 252//151 250//151 
f 142//151 140//151 250//151 144//151 
f 144//151 250//151 248//151 146//151 
f 148//151 146//151 248//151 150//151 
f 152//151 150//151 248//151 154//151 
f 156//151 154//151 248//151 158//151 
f 160//151 158//151 248//151 162//151 
f 164//151 162//151 248//151 166//151 
f 168//151 166//151 248//151 170//151 
f 172//151 170//151 248//151 174//151 
f 176//151 174//151 248//151 178//151 
f 180//151 178//151 248//151 182//151 
f 184//151 182//151 248//151 186//151 
f 188//151 186//151 248//151 190//151 
f 192//151 190//151 248//151 246//151 
f 194//151 192//151 246//151 196//151 
f 196//151 246//151 244//151 198//151 
f 200//151 198//151 244//151 242//151 
f 202//151 200//151 242//151 240//151 
f 202//151 240//151 238//151 236//151 
f 202//151 236//151 234//151 232//151 
f 202//151 232//151 230//151 228//151 
f 202//151 228//151 226//151 
f 212//151 210//151 226//151 214//151 
f 216//151 214//151 226//151 218//151 
f 220//151 218//151 226//151 222//151 
f 222//151 226//151 224//151 
f 221//152 223//152 225//152 219//152 
f 11//152 13//152 15//152 31//152 
f 23//152 25//152 27//152 21//152 
f 21//152 27//152 29//152 19//152 
f 19//152 29//152 31//152 17//152 
f 15//152 17//152 31//152 
f 9//152 11//152 31//152 51//152 
f 45//152 47//152 49//152 43//152 
f 41//152 43//152 49//152 39//152 
f 37//152 39//152 49//152 35//152 
f 33//152 35//152 49//152 31//152 
f 31//152 49//152 51//152 
f 9//152 51//152 53//152 7//152 
f 7//152 53//152 55//152 57//152 
f 7//152 57//152 59//152 61//152 
f 7//152 61//152 63//152 65//152 
f 7//152 65//152 67//152 69//152 
f 7//152 69//152 71//152 73//152 
f 7//152 73//152 75//152 77//152 
f 7//152 77//152 79//152 81//152 
f 7//152 81//152 83//152 85//152 
f 7//152 85//152 87//152 89//152 
f 7//152 89//152 91//152 93//152 
f 7//152 93//152 95//152 97//152 
f 7//152 97//152 99//152 101//152 
f 7//152 101//152 103//152 105//152 
f 7//152 105//152 107//152 109//152 
f 7//152 109//152 111//152 113//152 
f 7//152 113//152 115//152 117//152 
f 7//152 117//152 119//152 121//152 
f 7//152 121//152 123//152 125//152 
f 7//152 125//152 127//152 129//152 
f 7//152 129//152 131//152 133//152 
f 7//152 133//152 135//152 5//152 
f 1//152 5//152 135//152 2//152 
f 267//152 2//152 135//152 265//152 
f 263//152 265//152 135//152 261//152 
f 259//152 261//152 135//152 257//152 
f 255//152 257//152 135//152 253//152 
f 251//152 253//152 135//152 137//152 
f 251//152 137//152 139//152 249//152 
f 249//152 139//152 141//152 143//152 
f 247//152 249//152 143//152 145//152 
f 247//152 145//152 147//152 149//152 
f 247//152 149//152 151//152 153//152 
f 247//152 153//152 155//152 157//152 
f 247//152 157//152 159//152 161//152 
f 247//152 161//152 163//152 165//152 
f 247//152 165//152 167//152 169//152 
f 247//152 169//152 171//152 173//152 
f 247//152 173//152 175//152 177//152 
f 247//152 177//152 179//152 181//152 
f 247//152 181//152 183//152 185//152 
f 247//152 185//152 187//152 189//152 
f 247//152 189//152 191//152 245//152 
f 245//152 191//152 193//152 195//152 
f 243//152 245//152 195//152 197//152 
f 243//152 197//152 199//152 241//152 
f 241//152 199//152 201//152 239//152 
f 237//152 239//152 201//152 235//152 
f 233//152 235//152 201//152 231//152 
f 229//152 231//152 201//152 227//152 
f 225//152 227//152 201//152 209//152 
f 205//152 207//152 209//152 203//152 
f 201//152 203//152 209//152 
f 225//152 209//152 211//152 213//152 
f 225//152 213//152 215//152 217//152 
f 225//152 217//152 219//152 
# 262 polygons - 8 triangles

